[Header]
FileType HTR
DataType HTRS
FileVersion 1
NumSegments 22
NumFrames 4
DataFrameRate 24
EulerRotationOrder ZYX
CalibrationUnits mm
RotationUnits Degrees
GlobalAxisofGravity Y
BoneLengthAxis Y
ScaleFactor 1.0
[SegmentNames&Hierarchy]
reference	GLOBAL
Hips	reference
Spine	Hips
Spine1	Spine
Neck	Spine1
Head	Neck
LeftShoulder	Spine1
LeftArm	LeftShoulder
LeftForeArm	LeftArm
LeftHand	LeftForeArm
RightShoulder	Spine1
RightArm	RightShoulder
RightForeArm	RightArm
RightHand	RightForeArm
LeftUpLeg	Hips
LeftLeg	LeftUpLeg
LeftFoot	LeftLeg
LeftToeBase	LeftFoot
RightUpLeg	Hips
RightLeg	RightUpLeg
RightFoot	RightLeg
RightToeBase	RightFoot
[BasePosition]
reference	0	0	0	0	0	0	1
Hips	0	0	0	0	0	0	1
Spine	0	0	0	0	-0	90	1
Spine1	0	0	0	0	0	0	1
Neck	0	0	0	-7.352327771	-7.352327771	90	1
Head	0	0	0	0	-0	90	1
LeftShoulder	0	0	0	0	0	0	1
LeftArm	0	0	0	0	0	0	1
LeftForeArm	0	0	0	0	0	0	1
LeftHand	0	0	0	0	0	0	1
RightShoulder	0	0	0	0	-0	180	1
RightArm	0	0	0	0	-0	180	1
RightForeArm	0	0	0	0	-0	180	1
RightHand	0	0	0	0	-0	180	1
LeftUpLeg	0	0	0	0	-0	-90	1
LeftLeg	0	0	0	0	-0	-90	1
LeftFoot	0	0	0	66.57146043	-66.57146043	-90	1
LeftToeBase	0	0	0	0	-90	0	1
RightUpLeg	0	0	0	0	-0	-90	1
RightLeg	0	0	0	0	-0	-90	1
RightFoot	0	0	0	66.57146043	-66.57146043	-90	1
RightToeBase	0	0	0	0	-90	0	1
[reference]
10	0	0	0	0	-0	0	1.0
11	0	0	0	0	-0	0	1.0
12	0	0	0	0	-0	0	1.0
13	0	0	0	0	-0	0	1.0
[Hips]
10	-1.16858995	8.728730202	6.470749855	-5.960978508	-109.7288437	8.159566879	1.0
11	-1.16858995	8.728730202	6.470749855	-5.943787575	-109.6903763	8.191740036	1.0
12	-1.16858995	8.728730202	6.470749855	-5.917447567	-109.5710449	8.192716599	1.0
13	-1.16858995	8.728730202	6.470749855	-5.976135254	-109.4843445	8.188110352	1.0
[Spine]
10	0	0.7457100153	0	-10.67238998	0.9951010942	-88.22162628	1.0
11	0	0.7457100153	0	-10.66994858	0.9910266399	-88.22898865	1.0
12	0	0.7457100153	0	-10.64565849	0.9656062126	-88.25152588	1.0
13	0	0.7457100153	0	-10.41221523	1.005909801	-88.24595642	1.0
[Spine1]
10	0	2.140589952	0	11.24970055	0.1192511991	1.554188728	1.0
11	0	2.140589952	0	11.27881527	0.1127014235	1.647965431	1.0
12	0	2.140589952	0	11.31484127	0.1033414006	1.657081962	1.0
13	0	2.140589952	0	11.39853001	0.116728358	1.636018395	1.0
[Neck]
10	0	2.32246995	0	-12.25829697	-3.45227623	-87.90964508	1.0
11	0	2.32246995	0	-12.24316597	-3.56310463	-87.945755	1.0
12	0	2.32246995	0	-12.29053307	-3.645813942	-87.99176788	1.0
13	0	2.32246995	0	-12.38606071	-3.754447937	-88.01815033	1.0
[Head]
10	0	1.409579992	0.1818799973	-5.358207226	0.7830423713	-100.0428696	1.0
11	0	1.409579992	0.1818799973	-5.530975342	0.7613352537	-99.89405823	1.0
12	0	1.409579992	0.1818799973	-5.740729332	0.7432332039	-99.77709961	1.0
13	0	1.409579992	0.1818799973	-6.258415699	0.6584566236	-99.41508484	1.0
[LeftShoulder]
10	0.3668199778	1.946700096	-0.02662999928	-15.08173752	-11.99713993	-3.673895836	1.0
11	0.3668199778	1.946700096	-0.02662999928	-14.61967087	-12.07698345	-3.873503447	1.0
12	0.3668199778	1.946700096	-0.02662999928	-14.56806278	-12.18528748	-3.957128048	1.0
13	0.3668199778	1.946700096	-0.02662999928	-14.48666096	-12.2828989	-3.932822943	1.0
[LeftArm]
10	1.140689969	0	0	40.35593796	18.38923645	-77.41913605	1.0
11	1.140689969	0	0	40.26678467	18.04518127	-77.21411896	1.0
12	1.140689969	0	0	40.0248909	18.18985748	-77.12454987	1.0
13	1.140689969	0	0	38.93397141	18.72735786	-77.09571075	1.0
[LeftForeArm]
10	2.749800205	0	0	-16.82575989	-14.30328846	1.270164728	1.0
11	2.749800205	0	0	-16.8877964	-14.37885094	1.277482748	1.0
12	2.749800205	0	0	-17.2055912	-14.75706482	1.600126863	1.0
13	2.749800205	0	0	-17.48063469	-16.53777695	2.850800991	1.0
[LeftHand]
10	2.295179844	0	0	-16.43281174	-6.695547104	-3.978698969	1.0
11	2.295179844	0	0	-16.45827866	-7.109283447	-4.313240051	1.0
12	2.295179844	0	0	-16.74323463	-6.901091576	-4.224806309	1.0
13	2.295179844	0	0	-16.81213951	-7.896624565	-3.675994873	1.0
[RightShoulder]
10	-0.3601199985	1.946700096	-0.02662999928	-7.770748138	2.773915291	176.1520386	1.0
11	-0.3601199985	1.946700096	-0.02662999928	-7.77611208	2.771909475	176.1338806	1.0
12	-0.3601199985	1.946700096	-0.02662999928	-7.614282131	2.591952324	176.2493286	1.0
13	-0.3601199985	1.946700096	-0.02662999928	-7.333519936	2.536060333	176.4526062	1.0
[RightArm]
10	-1.140689969	0	0	48.41730499	-3.552680492	-98.26725769	1.0
11	-1.140689969	0	0	48.38529968	-3.584786415	-98.31309509	1.0
12	-1.140689969	0	0	48.23314285	-3.394866705	-98.48742676	1.0
13	-1.140689969	0	0	47.39832687	-3.210945606	-99.03755188	1.0
[RightForeArm]
10	-2.749800205	0	0	-0.7935846448	11.15070152	-180.2306519	1.0
11	-2.749800205	0	0	-0.7326103449	11.30877113	-180.2607117	1.0
12	-2.749800205	0	0	-0.744310081	11.66872215	-180.3597412	1.0
13	-2.749800205	0	0	0.1441709399	13.38800144	-180.4638672	1.0
[RightHand]
10	-2.295179844	0	0	-0.5458939672	8.926663399	-177.1177673	1.0
11	-2.295179844	0	0	-0.4897387028	9.009881973	-177.2468109	1.0
12	-2.295179844	0	0	-0.5004523993	9.106161118	-177.4023743	1.0
13	-2.295179844	0	0	0.2873960733	9.192566872	-178.8982391	1.0
[LeftUpLeg]
10	0.9094099998	0	0	5.920410633	6.467481136	92.8903656	1.0
11	0.9094099998	0	0	5.818453789	6.327171326	92.90899658	1.0
12	0.9094099998	0	0	5.624411106	6.299049377	92.89530945	1.0
13	0.9094099998	0	0	5.396044731	6.042058468	92.83071136	1.0
[LeftLeg]
10	0	-4.498080254	0	0.5303014517	-1.492918968	89.13407135	1.0
11	0	-4.498080254	0	0.6575428247	-1.553391814	89.07785797	1.0
12	0	-4.498080254	0	0.9296309948	-1.606967449	89.07139587	1.0
13	0	-4.498080254	0	1.486216187	-1.574327469	89.06324005	1.0
[LeftFoot]
10	0	-3.729400158	0	-66.1725235	103.306488	-21.5611496	1.0
11	0	-3.729400158	0	-65.94744873	103.3253403	-21.2121563	1.0
12	0	-3.729400158	0	-66.82637024	103.4058533	-21.92185974	1.0
13	0	-3.729400158	0	-67.38149261	103.5582428	-22.11029053	1.0
[LeftToeBase]
10	0	-0.5911099911	1.364109993	0	0	0	1.0
11	0	-0.5911099911	1.364109993	0	0	0	1.0
12	0	-0.5911099911	1.364109993	0	0	0	1.0
13	0	-0.5911099911	1.364109993	0	0	0	1.0
[RightUpLeg]
10	-0.9094099998	0	0	0.6479073763	-0.8987241387	90.71412659	1.0
11	-0.9094099998	0	0	0.5429676771	-0.9383946657	90.73060608	1.0
12	-0.9094099998	0	0	0.4408272505	-0.7483134866	90.7530899	1.0
13	-0.9094099998	0	0	0.2498373985	-1.055619955	90.76847076	1.0
[RightLeg]
10	0	-4.498080254	0	5.000909805	1.024701357	89.70832825	1.0
11	0	-4.498080254	0	5.147341728	1.120966673	89.69717407	1.0
12	0	-4.498080254	0	5.286436081	1.048236847	89.65083313	1.0
13	0	-4.498080254	0	5.800751209	1.131710649	89.50240326	1.0
[RightFoot]
10	0	-3.729400158	0	50.82226181	60.87802505	89.57492065	1.0
11	0	-3.729400158	0	50.59518814	60.82136536	89.42085266	1.0
12	0	-3.729400158	0	50.15278625	60.71536255	89.03042603	1.0
13	0	-3.729400158	0	50.23575974	60.65755081	89.39569092	1.0
[RightToeBase]
10	0	-0.5911099911	1.364109993	0	0	0	1.0
11	0	-0.5911099911	1.364109993	0	0	0	1.0
12	0	-0.5911099911	1.364109993	0	0	0	1.0
13	0	-0.5911099911	1.364109993	0	0	0	1.0
[EndOfFile]
